<?xml version="1.0" encoding="UTF-8"?>
<svg id="Layer_2" data-name="Layer 2" xmlns="http://www.w3.org/2000/svg" viewBox="0 0 463.58 175.67">
  <defs>
    <style>
      .cls-1 {
        fill: #fff;
      }

      .cls-2 {
        fill: #fff2d0;
        stroke-width: 3px;
      }

      .cls-2, .cls-3, .cls-4 {
        stroke: #000;
      }

      .cls-2, .cls-4 {
        stroke-linejoin: bevel;
      }

      .cls-5 {
        fill: #017bfe;
      }

      .cls-3 {
        stroke-miterlimit: 10;
        stroke-width: .75px;
      }

      .cls-4 {
        fill: #ffd487;
        stroke-width: 4px;
      }
    </style>
  </defs>
  <g id="Comments">
    <path class="cls-5" d="m271.18,175.22c-27.42,0-164.37.95-191.74-.24-35.62-1.55-68.33-30.78-76.64-65.42C-3.23,84.41.38,60.97,14.56,39.77,31.18,14.94,55.05.85,85.11.42c52.26-.74,214.03-.31,266.3-.18,45.75.12,85.41,40.2,85.62,85.93.08,17.17-1.26,34.4.78,51.5,1.91,16,9.59,28.39,24.69,35.41.44.2.73.72,1.08,1.09-.58.19-1.15.47-1.75.55-21.19,3-39.59-2.83-55.15-17.52-1.2-1.13-1.9-1.27-3.26-.21-17.02,13.26-36.41,18.93-57.91,18.64-24.77-.33-49.55-.08-74.33-.08,0-.12,0-.24,0-.37Z"/>
    <g>
      <path class="cls-1" d="m161.82,115.59v-57.68h7.2v57.68h-7.2Zm3.6-20.59v-6.4h15.11c4.13,0,7.33-1.07,9.59-3.22,2.27-2.14,3.4-5.11,3.4-8.89v-.08c0-3.81-1.13-6.78-3.4-8.91-2.26-2.13-5.46-3.2-9.59-3.2h-15.11v-6.4h16.95c3.62,0,6.82.77,9.59,2.32,2.77,1.55,4.95,3.7,6.54,6.48,1.58,2.77,2.38,5.98,2.38,9.63v.08c0,3.65-.79,6.88-2.38,9.67-1.59,2.8-3.76,4.98-6.54,6.56s-5.97,2.36-9.59,2.36h-16.95Z"/>
      <path class="cls-1" d="m219.29,116.39c-2.75,0-5.16-.52-7.24-1.56-2.08-1.04-3.7-2.5-4.86-4.4-1.16-1.89-1.74-4.09-1.74-6.6v-.08c0-2.37.59-4.42,1.78-6.16,1.19-1.73,2.9-3.1,5.16-4.12,2.25-1.01,4.96-1.61,8.14-1.8l15.39-.88v5.4l-14.59.88c-2.77.16-4.92.83-6.46,2-1.53,1.17-2.3,2.73-2.3,4.68v.08c0,2,.75,3.58,2.26,4.76,1.51,1.17,3.51,1.76,6.02,1.76,2.18,0,4.15-.46,5.9-1.38,1.75-.92,3.13-2.18,4.16-3.78,1.03-1.6,1.54-3.4,1.54-5.4v-12.27c0-2.53-.79-4.52-2.38-5.98-1.59-1.45-3.83-2.18-6.74-2.18-2.67,0-4.82.58-6.46,1.74s-2.66,2.67-3.06,4.54l-.08.36h-6.72l.04-.44c.21-2.29.99-4.37,2.34-6.24s3.21-3.35,5.58-4.46c2.37-1.11,5.18-1.66,8.43-1.66s6.11.56,8.49,1.68,4.23,2.7,5.54,4.74c1.31,2.04,1.96,4.44,1.96,7.21v28.74h-6.96v-6.76h-.16c-.8,1.52-1.87,2.84-3.2,3.98-1.33,1.13-2.83,2.01-4.5,2.64-1.67.63-3.43.94-5.3.94Z"/>
      <path class="cls-1" d="m264.45,116.39c-3.81,0-6.66-.91-8.55-2.72-1.89-1.81-2.84-4.7-2.84-8.67v-25.22h-6.08v-5.76h6.08v-11.23h7.2v11.23h7.92v5.76h-7.92v25.18c0,2.21.48,3.71,1.44,4.5.96.79,2.37,1.18,4.24,1.18.43,0,.83-.02,1.22-.06.39-.04.73-.07,1.02-.1v5.64c-.43.05-.98.11-1.66.18-.68.07-1.37.1-2.06.1Z"/>
      <path class="cls-1" d="m294.33,116.39c-3.92,0-7.32-.89-10.21-2.66-2.89-1.77-5.12-4.28-6.7-7.52s-2.36-7.06-2.36-11.45v-.04c0-4.37.8-8.17,2.4-11.39s3.84-5.72,6.72-7.48,6.24-2.64,10.07-2.64c3.46,0,6.44.67,8.92,2.02s4.43,3.08,5.86,5.22c1.42,2.13,2.28,4.38,2.58,6.76l.04.32h-6.8l-.08-.32c-.51-2.08-1.62-3.9-3.34-5.48s-4.11-2.36-7.18-2.36c-2.4,0-4.5.63-6.32,1.9-1.81,1.27-3.22,3.05-4.24,5.36-1.01,2.31-1.52,5.03-1.52,8.17v.04c0,3.22.51,5.98,1.54,8.27,1.03,2.29,2.45,4.05,4.28,5.28s3.94,1.84,6.34,1.84c2.85,0,5.16-.73,6.94-2.18,1.77-1.45,2.95-3.34,3.54-5.66l.08-.32h6.84l-.04.28c-.37,2.64-1.34,5.02-2.9,7.14-1.56,2.12-3.57,3.8-6.04,5.04-2.47,1.24-5.27,1.86-8.42,1.86Z"/>
      <path class="cls-1" d="m321.18,115.59v-57.68h6.96v22.75h.16c1.12-2.34,2.79-4.17,5-5.48,2.21-1.3,4.86-1.96,7.96-1.96s5.55.71,7.78,2.14c2.22,1.43,3.96,3.4,5.22,5.94,1.25,2.53,1.88,5.48,1.88,8.83v25.46h-6.96v-24.26c0-3.76-.91-6.69-2.72-8.79-1.81-2.1-4.34-3.16-7.6-3.16-2.13,0-4,.51-5.62,1.52-1.61,1.01-2.87,2.41-3.76,4.2-.89,1.79-1.34,3.86-1.34,6.24v24.26h-6.96Z"/>
    </g>
    <rect class="cls-4" x="44.64" y="70.48" width="89.98" height="34.71" rx="9.19" ry="9.19" transform="translate(-35.86 89.1) rotate(-45)"/>
    <rect class="cls-2" x="73.03" y="70.48" width="33.19" height="34.71" rx="5.64" ry="5.64" transform="translate(-35.86 89.1) rotate(-45)"/>
    <g>
      <rect class="cls-3" x="76.49" y="86.2" width="3.18" height="3.32" transform="translate(-39.26 80.95) rotate(-45)"/>
      <rect class="cls-3" x="82.25" y="91.96" width="3.18" height="3.32" transform="translate(-41.64 86.71) rotate(-45)"/>
      <rect class="cls-3" x="88.01" y="97.72" width="3.18" height="3.32" transform="translate(82.69 233.01) rotate(-135)"/>
      <rect class="cls-3" x="93.77" y="91.96" width="3.18" height="3.32" transform="translate(96.59 227.25) rotate(-135)"/>
      <rect class="cls-3" x="88.01" y="86.2" width="3.18" height="3.32" transform="translate(90.83 213.34) rotate(-135)"/>
      <rect class="cls-3" x="82.25" y="80.44" width="3.18" height="3.32" transform="translate(85.07 199.44) rotate(-135)"/>
      <rect class="cls-3" x="99.58" y="86.15" width="3.18" height="3.32" transform="translate(110.62 221.44) rotate(-135)"/>
      <rect class="cls-3" x="93.82" y="80.39" width="3.18" height="3.32" transform="translate(104.86 207.53) rotate(-135)"/>
      <rect class="cls-3" x="88.06" y="74.63" width="3.18" height="3.32" transform="translate(99.1 193.63) rotate(-135)"/>
    </g>
  </g>
</svg>